# xmcd
#
# Track frame offsets:
#	150
#	24364
#	36445
#	54854
#	67961
#	83474
#
# Disc length: 1272 seconds
#
# Revision: 0
# Processed by: cddbd v1.5.2PL0 Copyright (c) Steve Scherf et al.
# Submitted via: audiograbber 1.83.01
#
DISCID=3b04f606
DTITLE=The Giants Of Science - Hang-Ups And All
DYEAR=1998
DGENRE=Rock
TTITLE0=What She Needs (Sammi)
TTITLE1=Plans
TTITLE2=Ripoff
TTITLE3=Stranger
TTITLE4=Everyone Knows
TTITLE5=Best Of Intentions
EXTD=
EXTT0=
EXTT1=
EXTT2=
EXTT3=
EXTT4=
EXTT5=
PLAYORDER=
